{"title":"The.Passion.of.the.Christ.SWESUB.DVDRip.XviD.AC3.(5.1).-Zen_Bud","uid":5711170,"size":1466226688,"categoryP":"video","categoryS":"movies","magnet":"?xt=urn:btih:864981ae53f081172de776f0f275b91af7d8c579&amp;dn=The.Passion.of.the.Christ.SWESUB.DVDRip.XviD.AC3.%285.1%29.-Zen_Bud&amp;tr=udp%3A%2F%2Ftracker.openbittorrent.com%3A80&amp;tr=udp%3A%2F%2Fopen.demonii.com%3A1337&amp;tr=udp%3A%2F%2Ftracker.coppersurfer.tk%3A6969&amp;tr=udp%3A%2F%2Fexodus.desync.com%3A6969","seeders":6,"leechers":0,"uploader":null,"files":1,"time":1279903347,"description":"General\nComplete name                    : The Passion of the Christ.2004.avi\nFormat                           : AVI\nFile size                        : 1.37 GiB\nDuration                         : 2h 1mn\nOverall bit rate                 : 1 611 Kbps\n\nVideo\n\nFormat                           : MPEG-4 Visual\nCodec ID/Hint                    : XviD\nDuration                         : 2h 1mn\nBit rate                         : 1 155 Kbps\nWidth                            : 644 pixels\nHeight                           : 370 pixels\nDisplay aspect ratio             : 16:9\nStream size                      : 1 003 MiB (72%)\nWriting library                  : XviD 1.2.1 (UTC 2008-12-04)\n\nAudio\n\nFormat                           : AC-3\nDuration                         : 2h 1mn\nBit rate                         : 448 Kbps\nChannel(s)                       : 6 channels\nChannel positions                : Front: L C R, Side: L R, LFE\nSampling rate                    : 48.0 KHz\nStream size                      : 389 MiB (28%)\nAlignment                        : Split accross interleaves\n\n\n\n           Language:........................: Aramaic Latin Hebrew !\n\n\n &lt;a href=&quot;\nhttp://en.wikipedia.org/wiki/The_Passion_of_the_Christ&quot; rel=&quot;nofollow&quot; target=&quot;_NEW&quot;&gt;\nhttp://en.wikipedia.org/wiki/The_Passion_of_the_Christ&lt;/a&gt;\n\n**********************************************************************\n\nMy recent torrent IS: ValentineÃ‚Â´s.Day.2010.SWESUB.DVDRip.XviD.-Zen_Bud\nBut something goes very wrong when you writing &quot;xyzÃ‚Â´s&quot;, and we canÃ‚Â´t \nedit yet :(\n\n**********************************************************************","torrent":{"xt":"urn:btih:864981ae53f081172de776f0f275b91af7d8c579","amp;dn":"The.Passion.of.the.Christ.SWESUB.DVDRip.XviD.AC3.%285.1%29.-Zen_Bud","amp;tr":["udp%3A%2F%2Ftracker.openbittorrent.com%3A80","udp%3A%2F%2Fopen.demonii.com%3A1337","udp%3A%2F%2Ftracker.coppersurfer.tk%3A6969","udp%3A%2F%2Fexodus.desync.com%3A6969"],"infoHash":"864981ae53f081172de776f0f275b91af7d8c579","infoHashBuffer":{"type":"Buffer","data":[134,73,129,174,83,240,129,23,45,231,118,240,242,117,185,26,247,216,197,121]},"announce":[],"urlList":[]}}